<?xml version="1.0" standalone="no"?><!DOCTYPE svg PUBLIC "-//W3C//DTD SVG 1.1//EN" "http://www.w3.org/Graphics/SVG/1.1/DTD/svg11.dtd"><svg t="1710950159950" class="icon" viewBox="0 0 1024 1024" version="1.1" xmlns="http://www.w3.org/2000/svg" p-id="1929" width="36" height="36" xmlns:xlink="http://www.w3.org/1999/xlink"><path d="M514.56 896a384 384 0 1 1 384-384 384.426667 384.426667 0 0 1-384 384z m0-699.733333a315.733333 315.733333 0 1 0 315.733333 315.733333 315.733333 315.733333 0 0 0-315.733333-315.733333z" fill="#ffffff" p-id="1930"></path><path d="M418.133333 554.666667a128 128 0 1 1 128-128 128 128 0 0 1-128 128z m0-187.733334a59.733333 59.733333 0 1 0 59.733334 59.733334 59.733333 59.733333 0 0 0-59.733334-59.733334z" fill="#ffffff" p-id="1931"></path><path d="M239.872 757.077333h-11.861333c-111.701333-2.133333-184.32-35.413333-204.8-93.866666-10.752-30.805333-11.008-81.664 48.554666-148.992A30.72 30.72 0 0 1 118.016 554.666667c-31.146667 35.242667-44.117333 66.56-36.608 88.234666 10.837333 31.317333 66.133333 51.2 147.797333 52.48 94.378667 1.706667 212.053333-20.138667 331.434667-61.525333s225.365333-97.28 298.666667-157.184c63.061333-51.797333 93.866667-101.461333 83.456-132.778667-7.936-22.698667-41.301333-40.192-91.562667-47.872a30.72 30.72 0 1 1 9.301333-60.672C955.733333 250.282667 989.184 291.84 1000.362667 324.266667c44.714667 128.853333-182.784 285.696-419.584 367.957333-121.173333 41.642667-241.664 64.853333-340.906667 64.853333z" fill="#ffffff" p-id="1932"></path></svg>