<?xml version="1.0" standalone="no"?><!DOCTYPE svg PUBLIC "-//W3C//DTD SVG 1.1//EN" "http://www.w3.org/Graphics/SVG/1.1/DTD/svg11.dtd"><svg t="1710950568570" class="icon" viewBox="0 0 1024 1024" version="1.1" xmlns="http://www.w3.org/2000/svg" p-id="2437" xmlns:xlink="http://www.w3.org/1999/xlink" width="36" height="36"><path d="M482.986667 501.333333a213.333333 213.333333 0 1 1 213.333333-213.333333 213.333333 213.333333 0 0 1-213.333333 213.333333z m0-358.4a145.066667 145.066667 0 1 0 145.066666 145.066667 145.066667 145.066667 0 0 0-145.066666-145.066667zM107.52 949.333333a34.133333 34.133333 0 0 1-34.133333-34.133333c2.645333-215.466667 186.368-390.741333 409.6-390.741333A423.082667 423.082667 0 0 1 678.058667 571.733333a34.133333 34.133333 0 0 1-31.658667 60.501334 353.706667 353.706667 0 0 0-163.413333-39.509334c-186.026667 0-339.114667 145.066667-341.333334 322.901334a34.133333 34.133333 0 0 1-34.133333 33.706666zM916.48 811.52h-273.066667a34.133333 34.133333 0 0 1 0-68.266667h273.066667a34.133333 34.133333 0 0 1 0 68.266667z" fill="#ffffff" p-id="2438"></path><path d="M779.946667 949.333333a34.133333 34.133333 0 0 1-34.133334-34.133333V639.488a34.133333 34.133333 0 0 1 68.266667 0v275.712a34.133333 34.133333 0 0 1-34.133333 34.133333z" fill="#ffffff" p-id="2439"></path></svg>